<?xml version="1.0" standalone="no"?>
<!DOCTYPE svg PUBLIC "-//W3C//DTD SVG 20010904//EN"
 "http://www.w3.org/TR/2001/REC-SVG-20010904/DTD/svg10.dtd">
<svg version="1.0" xmlns="http://www.w3.org/2000/svg"
 width="263.000000pt" height="263.000000pt" viewBox="0 0 263.000000 263.000000"
 preserveAspectRatio="xMidYMid meet">
<metadata>
Created by potrace 1.11, written by Peter Selinger 2001-2013
</metadata>
<g transform="translate(0.000000,263.000000) scale(0.100000,-0.100000)"
fill="#000000" stroke="none">
<path d="M933 2197 c-3 -4 -10 -6 -16 -4 -7 2 -33 -4 -59 -13 -26 -10 -49 -15
-52 -12 -4 3 -6 0 -6 -6 0 -7 -3 -12 -7 -11 -16 2 -53 -14 -53 -22 0 -5 -4 -9
-10 -9 -10 0 -45 -26 -64 -48 -6 -7 -18 -21 -26 -31 -8 -10 -16 -24 -18 -32
-2 -8 -9 -26 -17 -41 -10 -21 -10 -28 -2 -28 8 0 8 -3 2 -8 -14 -10 -15 -92
-1 -92 6 0 5 -4 -3 -9 -9 -6 -10 -11 -2 -15 6 -4 11 -17 11 -30 0 -12 6 -28
13 -35 9 -11 9 -13 0 -7 -7 4 -13 2 -13 -4 0 -7 -8 -9 -21 -5 -41 13 -54 12
-73 -4 -16 -13 -18 -13 -12 -1 5 8 -11 -5 -33 -30 -23 -24 -44 -54 -47 -67 -4
-13 -11 -23 -17 -23 -6 0 -7 -3 -4 -7 4 -3 2 -12 -4 -20 -9 -10 -8 -13 2 -13
11 0 11 -2 0 -9 -8 -5 -16 -23 -17 -39 -1 -17 -7 -39 -13 -50 -6 -11 -8 -22
-5 -25 3 -3 7 -27 9 -54 2 -26 8 -49 14 -51 6 -2 9 -8 5 -13 -3 -5 3 -9 12 -9
10 0 15 -3 11 -6 -8 -9 34 -49 71 -68 18 -9 33 -16 34 -15 2 0 17 -5 33 -12
30 -12 47 -16 87 -22 29 -5 34 -22 14 -52 -9 -14 -14 -25 -11 -25 3 0 -2 -14
-10 -31 -9 -17 -14 -37 -11 -45 3 -8 1 -14 -4 -14 -13 0 -13 -220 -1 -239 7
-10 4 -19 -7 -29 -12 -9 -12 -11 -2 -6 12 5 12 4 3 -6 -7 -8 -34 -12 -68 -11
-41 1 -55 -2 -52 -12 2 -6 11 -11 21 -9 9 2 16 -2 16 -9 0 -7 10 -9 25 -7 15
3 25 1 25 -7 0 -12 34 -14 46 -2 7 6 64 -46 64 -59 0 -3 12 -17 28 -30 15 -13
24 -24 20 -24 -4 0 3 -10 15 -23 12 -13 25 -22 28 -20 4 1 17 -6 29 -17 12
-11 31 -22 41 -25 11 -4 19 -11 19 -16 0 -6 4 -8 9 -5 5 3 23 -1 40 -10 18 -9
49 -18 69 -19 20 -2 37 -4 37 -5 0 -10 79 -13 115 -4 14 3 37 5 52 5 15 -1 30
3 33 9 4 6 10 8 15 5 5 -3 11 -1 15 5 9 15 28 12 19 -2 -4 -7 2 -5 13 5 12 10
29 20 38 21 9 1 26 11 38 21 12 11 23 18 25 17 9 -7 22 0 16 10 -5 7 -3 8 6 3
7 -4 15 -3 19 3 3 6 13 12 20 14 8 2 22 10 31 18 44 39 69 58 73 54 2 -2 10 3
18 13 12 15 12 16 -1 9 -8 -4 -4 2 10 13 14 11 31 21 39 21 8 0 12 3 8 6 -7 7
49 64 64 64 6 0 8 4 5 9 -10 15 29 40 59 38 46 -2 134 23 145 42 5 9 10 11 10
4 0 -8 13 -4 36 10 19 12 43 27 53 32 22 13 96 85 87 85 -4 0 4 10 17 23 13
12 23 30 21 40 -1 9 4 17 12 17 8 0 11 6 7 15 -3 10 0 15 8 13 7 -2 13 4 14
12 2 32 29 130 36 130 4 0 6 20 4 45 -1 25 1 45 6 45 9 0 55 72 51 83 -1 4 3
7 8 7 6 0 10 6 9 13 -1 6 1 19 4 27 11 23 14 120 4 120 -4 0 -5 5 -2 10 3 6 3
10 -2 10 -4 0 -9 12 -10 27 0 15 -6 29 -12 31 -6 2 -9 8 -6 12 3 5 -3 15 -13
22 -10 7 -21 21 -25 31 -3 9 -14 17 -22 17 -10 0 -13 5 -9 12 4 6 3 8 -3 5 -5
-3 -22 0 -36 8 -17 8 -54 14 -94 13 -41 -1 -68 3 -71 10 -2 6 -10 8 -18 5 -8
-3 -14 0 -14 7 0 6 -4 8 -10 5 -5 -3 -10 -2 -10 2 0 11 -90 44 -101 37 -5 -3
-9 0 -9 5 0 6 -9 11 -20 11 -12 0 -20 7 -20 16 0 18 61 137 72 142 5 2 6 7 4
10 -9 15 86 76 119 76 19 1 31 5 27 11 -3 6 2 4 11 -4 9 -7 14 -17 11 -22 -3
-5 2 -9 10 -9 9 0 16 -5 16 -11 0 -5 -6 -7 -12 -4 -7 4 -4 -1 6 -9 23 -19 36
-20 57 -3 18 14 18 59 0 65 -6 2 -9 8 -5 13 3 5 -1 9 -8 10 -67 6 -97 5 -93
-2 3 -4 -3 -8 -12 -8 -16 0 -48 -6 -63 -11 -3 -1 -9 -2 -13 -1 -5 1 -6 -3 -2
-9 3 -5 1 -10 -6 -10 -6 0 -23 -12 -37 -27 -59 -66 -66 -76 -52 -69 12 6 11 4
-1 -6 -9 -7 -16 -15 -17 -18 -3 -20 -23 -59 -32 -65 -9 -6 -9 -10 1 -16 11 -7
11 -9 1 -9 -7 0 -10 -4 -7 -10 3 -5 3 -10 -2 -11 -41 -5 -62 -5 -58 1 2 3 -3
19 -11 34 -7 16 -14 35 -14 42 0 8 -3 14 -8 14 -4 0 -13 13 -20 29 -15 34 -90
117 -103 113 -5 -1 -9 2 -9 7 0 15 -53 29 -132 35 -49 3 -58 -4 -64 -49 -5
-37 5 -51 33 -49 16 1 27 7 25 13 -1 6 2 11 8 11 5 0 10 7 10 17 0 9 3 14 6
10 4 -3 13 1 21 9 12 11 18 12 29 3 8 -6 14 -8 14 -5 0 10 60 -26 87 -52 12
-13 23 -27 23 -32 0 -6 5 -10 10 -10 6 0 10 -5 10 -10 0 -6 8 -22 17 -37 10
-14 18 -33 19 -41 2 -8 6 -18 11 -21 21 -14 -8 -58 -29 -45 -4 3 -8 1 -8 -5 0
-5 -9 -8 -20 -6 -11 2 -20 0 -20 -4 0 -5 -10 -8 -22 -7 -14 1 -22 -4 -20 -12
1 -8 -2 -11 -7 -8 -14 9 -42 -5 -34 -17 4 -6 0 -8 -10 -4 -9 3 -17 1 -19 -4
-2 -6 -24 -10 -48 -11 -25 0 -54 -5 -65 -11 -11 -6 -23 -10 -27 -9 -4 1 -12
-7 -18 -18 -6 -11 -15 -18 -20 -15 -5 3 -11 -4 -15 -15 -4 -11 -11 -18 -16
-15 -5 3 -6 -2 -2 -11 4 -12 3 -15 -5 -10 -11 7 -14 3 -16 -26 -1 -7 -5 -16
-11 -20 -5 -4 -10 -11 -10 -15 -2 -24 -18 -53 -30 -53 -20 0 -24 23 -6 38 9 8
10 11 4 7 -18 -9 -16 5 2 19 8 6 16 23 17 39 1 15 6 27 11 27 5 0 7 8 5 18 -2
9 3 23 12 30 8 8 9 11 3 7 -7 -3 -13 -1 -13 4 0 6 4 11 8 11 4 0 9 10 10 23 1
12 5 40 9 62 12 67 8 268 -5 273 -7 2 -10 8 -6 13 3 5 0 9 -7 9 -7 0 -9 3 -6
6 4 4 -3 15 -15 25 -11 11 -17 19 -12 20 5 0 -2 5 -16 11 -14 6 -31 10 -39 9
-7 -1 -11 2 -8 6 3 5 -39 9 -94 9 -56 -1 -103 -4 -106 -9z"/>
</g>
</svg>
